<?xml version="1.0" encoding="utf-8"?>
<!-- Generator: Adobe Illustrator 26.3.1, SVG Export Plug-In . SVG Version: 6.00 Build 0)  -->
<svg version="1.1" id="Layer_1" xmlns="http://www.w3.org/2000/svg" xmlns:xlink="http://www.w3.org/1999/xlink" x="0px" y="0px"
	 viewBox="0 0 602 172.5" style="enable-background:new 0 0 602 172.5;" xml:space="preserve">
<style type="text/css">
	.st0{fill:#EA1F1F;}
</style>
<g>
	<g>
		<path class="st0" d="M106.6,100.9c0.3,11.7,0.6,23.3,0.9,35c-8,0.1-16.1,0.2-24.1,0.3c-14.5-25-29-49.3-43.4-72.7
			c-0.4,0-0.9,0.1-1.3,0.1c0,12-0.1,23.9-0.1,35.9c0.2,12.4,0.5,24.8,0.7,37.2c-6.8,0.1-13.5,0.2-20.3,0.3
			c0.4-10.5,0.8-20.9,1.2-31.4c-0.3-25-0.7-49.9-1-74.9c8-0.9,15.9-1.7,23.9-2.5c14.4,23,28.9,47,43.4,71.7c0.5,0,1,0,1.5-0.1
			c-0.2-24.9-0.4-49.8-0.6-74.7c6.9-1,13.7-2,20.6-3C107.4,48.4,107,74.7,106.6,100.9z"/>
		<path class="st0" d="M208.6,114.5c0.4,0.7,0.9,1.3,1.3,2c-0.5,6.2-1,12.4-1.5,18.5c-22.2,0.1-44.4,0.3-66.7,0.5
			c0.4-11.5,0.7-22.9,1.1-34.4c-0.4-27-0.8-53.9-1.3-80.9c22.4-1.4,44.9-2.5,67.4-3.2c0.4,0.7,0.9,1.3,1.3,2
			c-0.5,6.2-1.1,12.4-1.6,18.6c-8.5-0.1-17-0.1-25.4,0c-6.4,0.3-12.8,0.6-19.2,1c-0.2,9.3-0.3,18.7-0.5,28
			c6.1-0.1,12.2-0.2,18.3-0.2c5.8-0.4,11.6-0.7,17.3-1c0.4,0.6,0.9,1.2,1.3,1.8c-0.5,6.2-1,12.3-1.5,18.5
			c-6.3-0.1-12.5-0.1-18.8-0.1c-5.7,0.2-11.3,0.4-17,0.6c-0.1,4.2-0.1,8.3-0.2,12.5c0.2,5.8,0.3,11.7,0.5,17.5
			c6.2,0,12.4-0.1,18.6-0.1C191.1,115.5,199.8,115,208.6,114.5z"/>
		<path class="st0" d="M301.8,17.5c-0.4,6.2-0.9,12.5-1.3,18.7c-6.7-0.4-13.3-0.7-20-1.1c-2.2,0-4.4,0-6.6,0
			c-0.3,20.6-0.5,41.2-0.8,61.9c0.3,12.6,0.7,25.2,1,37.8c-7.5,0-15,0-22.4,0c0.4-11.8,0.8-23.7,1.1-35.5
			c-0.3-21.3-0.6-42.6-0.9-63.9c-2.2,0-4.4,0.1-6.6,0.1c-6.8,0.5-13.5,1-20.3,1.5c-0.5-0.7-1-1.3-1.5-2c0.5-6.2,1-12.4,1.5-18.6
			c25.2-0.7,50.3-1.1,75.5-1C301,16.2,301.4,16.8,301.8,17.5z"/>
		<path class="st0" d="M347.8,35.9c-0.2,10.7-0.3,21.4-0.5,32.1c5,0.1,9.9,0.3,14.9,0.4c6-0.1,12-0.2,18-0.2c0.5,0.6,1,1.2,1.5,1.9
			c-0.6,6.2-1.1,12.3-1.7,18.5c-6.5-0.3-13.1-0.6-19.6-0.8c-4.5,0-8.9,0-13.4,0c-0.1,3.1-0.1,6.3-0.2,9.4c0.3,12.6,0.6,25.1,1,37.7
			c-7.5,0-15,0-22.4,0c0.4-11.8,0.8-23.7,1.2-35.5c-0.4-27.9-0.8-55.8-1.1-83.7c21.1,0.2,42.2,0.7,63.3,1.5c0.4,0.7,0.9,1.4,1.3,2.1
			c-0.6,6.2-1.1,12.4-1.7,18.6c-8.4-0.6-16.8-1.2-25.3-1.8C357.9,36,352.8,36,347.8,35.9z"/>
		<path class="st0" d="M467,117.7c-0.5,6-1,12-1.5,17.9c-19.1-0.2-38.3-0.3-57.4-0.4c0.4-11.7,0.8-23.3,1.2-34.9
			c-0.4-27.4-0.7-54.9-1.1-82.3c7.6,0.3,15.2,0.7,22.8,1.1c-0.5,26.5-0.9,53-1.4,79.5c0.2,5.5,0.3,11.1,0.5,16.6
			c11.9,0.2,23.8,0.4,35.6,0.6C466.2,116.4,466.6,117,467,117.7z"/>
		<path class="st0" d="M509.9,100.7c0.3,11.8,0.6,23.6,1,35.4c-7.5-0.1-15-0.2-22.4-0.3c0.4-11.2,0.8-22.5,1.2-33.7
			c-0.4-26.5-0.7-53-1.1-79.5c7.6,0.6,15.2,1.2,22.7,1.8C510.9,49.9,510.4,75.3,509.9,100.7z"/>
		<path class="st0" d="M573.9,102c0.1,5,0.2,10,0.3,15c0,6.3-1,11.6-3.1,16c-2.1,4.4-5.5,8.3-10.1,11.7c-4.7,3.4-11.1,6.7-19.2,9.9
			c-2.3-4.1-4.5-8.2-6.8-12.3c0-0.7,0-1.4,0-2c6.8-3.6,11.6-7.1,14.4-10.5c2.8-3.5,4.2-8,4.2-13.6c0-4.3,0-8.5,0-12.8
			c-0.3-19.3-0.6-38.7-1-58.1c-5.8-0.3-11.6-0.7-17.5-1c-0.5-0.6-1.1-1.2-1.6-1.8c0.4-5.3,0.8-10.5,1.2-15.8
			c13.5,1.3,26.9,2.6,40.3,4.1C574.7,54.5,574.3,78.2,573.9,102z"/>
	</g>
</g>
</svg>
